<svg width="897" height="896" viewBox="0 0 897 896" fill="none" xmlns="http://www.w3.org/2000/svg">
<path d="M421.96 403.5C410.36 408.4 401.06 415.7 394.16 425.5C387.26 435.3 383.76 447.1 383.76 461C383.76 478.8 391.26 492.5 406.16 502.2C420.26 511.3 435.06 513.6 450.56 509C468.46 503.8 480.56 491.1 486.96 470.9C489.96 461.6 491.46 451.2 491.46 439.6V389.4C478.86 389.8 467.06 391 455.96 393.1C444.86 395.2 433.56 398.7 421.96 403.5ZM448.96 0C201.56 0 0.959961 200.6 0.959961 448C0.959961 695.4 201.56 896 448.96 896C696.36 896 896.96 695.4 896.96 448C896.96 200.6 696.36 0 448.96 0ZM484.76 262.7C477.56 251.8 464.66 246.3 446.06 246.3C444.76 246.3 443.06 246.4 440.76 246.6C438.56 246.8 434.16 248.1 427.86 250.3C421.532 252.564 415.517 255.621 409.96 259.4C404.46 263.2 398.46 269.4 391.96 277.8C385.56 286.3 380.46 296.2 376.66 307.6L282.66 299.2C282.66 286.8 285.06 274.5 289.66 262.3C294.36 250.1 301.46 238.4 311.06 227.3C320.66 216.1 332.16 206.3 345.56 197.9C358.96 189.4 375.16 182.7 393.96 177.6C412.86 172.5 433.06 170 454.86 170C476.16 170 495.46 172.6 512.66 177.7C529.86 182.9 543.76 189.2 554.06 196.8C563.984 203.959 572.724 212.632 579.96 222.5C586.86 232.1 591.66 241 594.36 249.2C597.06 257.4 598.36 264.9 598.36 272V454.5C598.36 460.9 599.76 467.5 602.66 474.3C605.56 481.1 608.96 487.1 612.86 492.3C616.76 497.5 620.76 502.2 624.86 506.6C628.96 510.9 632.46 514.3 635.46 516.5L639.56 519.9L567.06 589.3C558.56 581.6 550.16 573.9 541.86 565.9C533.56 557.9 527.36 551.9 523.36 547.8L517.26 541.6C514.86 539.3 512.26 535.9 509.26 531.4C501.16 543.6 490.76 554.2 478.16 563.2C465.46 572.2 451.86 578.8 437.46 582.9C422.96 587 408.06 589.4 392.76 590C377.46 590.6 362.76 588.5 348.86 583.5C334.96 578.5 322.36 571.8 311.26 563.2C300.16 554.6 291.36 543 284.76 528.2C278.16 513.4 274.86 496.7 274.86 477.8C274.86 460.4 277.86 444.5 283.76 430.1C289.76 415.6 297.36 403.6 306.76 394C316.16 384.4 327.46 375.8 340.76 368.3C354.06 360.8 367.16 354.9 379.96 350.6C392.76 346.4 406.56 342.8 421.46 339.9C436.36 337 449.06 335.1 459.66 334.2C470.26 333.3 480.86 332.6 491.46 332.2V292.8C491.46 279.3 489.16 269.3 484.76 262.7ZM665.26 642.3C662.46 645.6 657.76 650.1 651.16 655.8C641.26 664.35 634.36 668.5 620.66 676.9C606.96 685.3 591.86 692.9 575.66 699.8C559.36 706.7 539.36 712.7 515.56 717.8C491.86 722.9 467.36 725.4 442.26 725.4C416.86 725.4 391.56 722.2 366.16 715.8C340.76 709.4 318.56 701.5 299.36 692.1C280.26 682.7 261.76 671.9 244.26 659.9C226.66 647.8 212.56 637 201.86 627.4C191.26 617.8 182.26 608.7 175.06 600.3C173.36 598.4 172.26 596.7 171.86 595.2C171.46 593.7 171.56 592.4 172.16 591.5C172.76 590.6 173.66 589.9 174.76 589.3C175.955 588.77 177.268 588.565 178.568 588.705C179.867 588.845 181.106 589.327 182.16 590.1C223.06 614.3 255.06 631.4 278.06 641.5C360.96 677.9 446.06 687.2 533.36 669.4C573.86 661.1 615.46 647.2 658.26 627.6C661.46 626.4 664.26 626.1 666.56 626.7C668.86 627.3 670.06 629.1 670.06 632.1C670.06 634.9 668.46 638.4 665.26 642.3ZM725.16 613.3C723.36 624.4 720.26 634.9 716.06 645.1C708.86 662.2 699.76 675.1 688.96 683.5C685.36 686.4 682.56 687.3 680.66 686.3C678.76 685.3 678.76 682.8 680.66 678.9C685.16 669.6 689.86 657.1 694.86 641.2C699.86 625.4 700.56 615.2 696.96 610.7C695.86 609.2 694.26 608.1 691.96 607.1C689.76 606.2 686.86 605.6 683.36 605.2C679.86 604.8 676.66 604.6 673.96 604.4C671.16 604.2 667.46 604.2 662.76 604.4C658.06 604.6 654.76 604.8 652.66 605C646.965 605.556 641.265 606.056 635.56 606.5C634.26 606.7 632.86 606.9 631.46 607C629.96 607.1 628.76 607.2 627.96 607.3L625.26 607.6C624.26 607.7 623.56 607.8 623.06 607.8H619.86L618.86 607.6L618.26 607.1L617.76 606.2C616.46 602.9 621.46 598.8 632.76 593.8C644.06 588.8 655.06 585.7 665.66 584.5C675.46 583 686.96 583 700.16 584.2C713.36 585.4 721.46 587.9 724.46 591.6C726.76 595.1 726.96 602.3 725.16 613.3Z" fill="black"/>
</svg>
